<svg width="512" height="512" fill="none" xmlns="http://www.w3.org/2000/svg"><path d="M496 392h-40V192a40.045 40.045 0 00-40-40H96a40.045 40.045 0 00-40 40v200H16a8.001 8.001 0 00-8 8v32a40.045 40.045 0 0040 40h416a40.045 40.045 0 0040-40v-32a8 8 0 00-8-8zM72 192a24.029 24.029 0 0124-24h320a24.03 24.03 0 0124 24v200H72V192zm220.456 216l-3 8h-67.69l-2.666-8h73.356zM488 432a24.03 24.03 0 01-24 24H48a24.028 24.028 0 01-24-24v-24h178.234l6.177 18.53A8.002 8.002 0 00216 432h79a8.005 8.005 0 007.491-5.191L309.544 408H488v24z" fill="#0E384A"/><path d="M432 376V184a8 8 0 00-8-8H88a8.001 8.001 0 00-8 8v192a8 8 0 008 8h336a8 8 0 008-8zm-16-8H96V192h320v176zm-296 48H40a8.001 8.001 0 00-5.657 13.657A8.001 8.001 0 0040 432h80a8 8 0 100-16zm32 0h-8a8 8 0 100 16h8a8 8 0 100-16zm80-296a24.002 24.002 0 0028.682 23.539 24.005 24.005 0 0018.857-18.857 23.995 23.995 0 00-10.205-24.637A24 24 0 00256 96a24.03 24.03 0 00-24 24zm32 0a8.003 8.003 0 01-4.939 7.391 7.992 7.992 0 01-4.622.455 7.993 7.993 0 01-6.285-6.285A8 8 0 01256 112a8.007 8.007 0 018 8z" fill="#0E384A"/><path d="M295.191 96a8.001 8.001 0 005.6-13.714 63.998 63.998 0 00-89.582 0 8.009 8.009 0 00-2.4 5.633 7.998 7.998 0 007.92 8.08 7.998 7.998 0 005.68-2.285 48 48 0 0167.186 0 7.971 7.971 0 005.596 2.285z" fill="#0E384A"/><path d="M201.094 69.817a80 80 0 01109.814 0 8 8 0 0010.984-11.634 96 96 0 00-131.782 0 8.001 8.001 0 0010.984 11.634zm35.007 241.166a7.998 7.998 0 008.095-.17l39-24a7.996 7.996 0 003.807-6.813 7.996 7.996 0 00-3.807-6.813l-39-24a8.004 8.004 0 00-8.097-.172 7.99 7.99 0 00-4.098 6.985v48a8 8 0 004.1 6.983zm11.9-40.667L263.737 280l-15.736 9.684v-19.368z" fill="#0E384A"/><path d="M256 344a64 64 0 10-64-64 64.073 64.073 0 0064 64zm0-112a47.998 47.998 0 0133.941 81.941A48 48 0 01208 280a48.056 48.056 0 0148-48z" fill="#0E384A"/></svg>