<svg width="64" height="64" fill="none" xmlns="http://www.w3.org/2000/svg"><path d="M62.66 31.143H41.651c-.727 0 0-.672 0-.672l-.008-.003c.332-.305.593-.588.782-.8 3.353-4.427.495-11.016.056-11.962-1.567-2.757-3.473-4.272-5.387-5.044-.148-.055-.292-.106-.465-.178a20.593 20.593 0 00-2.98-.853c-4.868-.728-9.48 1.551-9.52 1.571C19.92 15.604 9.185 21.92 4.392 26.498a13.91 13.91 0 00-.687.687c-.176.186-.338.367-.49.544-.04.05-.083.092-.12.142a9.788 9.788 0 00-.394.511l.032-.015a13.446 13.446 0 00-2.18 4.654c-1.52 4.786.112 15.48 9.115 18.852.4.131 2.14.642 4.755.642h24.658c.854-.034 2.903-.312 4.87-2.067 0 0 0-.002.003-.003l18.35-16.41.526-.47c2.605-2.333-.172-2.422-.172-2.422zm-6.272 4.564l-12.897 11.72c-2 1.815-4.122 2.135-5.067 2.18H13.85c-1.928 0-3.959-.713-4.142-.778a17.65 17.65 0 01-1.872-1.043c-7.04-4.507-4.927-13.113-4.584-14.34l.02-.062c.015-.06.028-.1.028-.1h-.003C4.811 28.491 8.378 25 15.092 24.797c.84.016 3.268.213 5.43 1.851.531.436 1.062.943 1.583 1.56 1.03 1.33 3.421 5.206 2.332 9.686-.878 2.937-2.15 4.207-3.904 5.388-1.756 1.182-5.237 2.271-8.508.272-1.905-1.303-3.358-3.54-3.087-6.509.273-2.968 3.331-5.116 6.054-4.48 2.725.635 4.33 4.722 1.392 6.357-1.384.588-2.22.24-2.768-.51v.003s-.789-.734-1.788-.28c-.99.45-.672 1.858-.667 1.881 1.08 1.586 3.152 2.774 6.26 1.677a4.808 4.808 0 001.784-1.124l.007.001.114-.12c.105-.11.205-.226.3-.346 1.07-1.318 3.581-5.282-.414-9.763-2.33-1.865-9.543-3.87-12.557 4.172a8.214 8.214 0 00-.299.826c-.014.041-.029.074-.043.115.003.002.003 0 .005.002-.529 1.821-.527 4.046.562 6.523 2.422 5.51 9.413 6.991 14.5 4.268a11.608 11.608 0 002.496-1.805l-.004.006 12.29-9.64s.86-.776 2.177-.776h18.024c1.754 0 .232 1.48.025 1.675z" fill="#0E384A"/></svg>