<svg width="256" height="256" fill="none" xmlns="http://www.w3.org/2000/svg"><path d="M230.881 177.81c-1.99-1.76-5.47-.77-9.89.47a38.94 38.94 0 01-6.15 1.41c-4.05.39-6.2 2.09-7.3 3.54-3.11-1.57-9.81-5.35-12.68-9.95-3.96-6.34-10.77-12.25-12.05-13.32-4.41-6.11-8.56-14.26-12.23-21.46-3.15-6.18-6.12-12.01-8.8-15.65a22.56 22.56 0 00-13.56-8.83c-.23-.05-.46-.1-.69-.14l-.21-.03a20.696 20.696 0 01-6.33-1.87c-2.55-1.35-3.99-3.49-3.99-7.18v-2.4a25.894 25.894 0 008.29-3.97A19.668 19.668 0 00162.26 108h6.69a2.006 2.006 0 002-2V88.14a26.416 26.416 0 00-5.82-16.58c.45-.683.762-1.447.92-2.25l.45-2.23a6.462 6.462 0 00-1.34-5.37 6.33 6.33 0 00-2.05-1.64l1.64-10.42a36.012 36.012 0 00-.91-15.404 36.01 36.01 0 00-19.57-22.929A36.021 36.021 0 00129.2 8h-2.96a36.018 36.018 0 00-34.641 26.246 36.02 36.02 0 00-.91 15.404l1.63 10.42a6.317 6.317 0 00-2.04 1.64 6.4 6.4 0 00-1.34 5.37l.44 2.23a6.473 6.473 0 006.33 5.2h.23C97.7 87.02 106.74 99.57 119 102.55v2.25c0 3.68-1.44 5.83-4 7.18a21.285 21.285 0 01-6.41 1.88l-.11.02c-.23.04-.47.09-.7.14a22.545 22.545 0 00-13.56 8.83c-2.68 3.64-5.65 9.47-8.8 15.65-3.67 7.2-7.82 15.35-12.23 21.46-1.28 1.07-8.09 6.98-12.05 13.32-2.87 4.6-9.57 8.38-12.68 9.95-1.1-1.45-3.25-3.15-7.3-3.54a38.908 38.908 0 01-6.15-1.41c-4.42-1.24-7.9-2.23-9.89-.47a3.561 3.561 0 00-1.06 3.4c.6 3.95 4.57 11.43 10.48 15.2a15.02 15.02 0 0012.65 1.87c1.06-.31 2.15-.69 3.27-1.13a15.242 15.242 0 00-.81 3.51 20.267 20.267 0 004.47 15.72c4.56 5.54 12.3 9.52 22.34 12.51-4.59.52-8.65 1.69-9.92 4.07a4.002 4.002 0 00.39 4.28c.34.51.68 1.04 1.02 1.57 2.63 4.1 5.9 9.19 11.96 9.19 3.485.081 6.97-.167 10.41-.74 1.4-.18 3.15-.41 5.4-.69a41.423 41.423 0 0019.31-7.41l1.69-1.23c3.84-.31 7.6-.62 11.27-.96 3.7.34 7.47.65 11.29.96l1.62 1.17a41.308 41.308 0 0019.39 7.47c2.25.29 4.01.51 5.41.69 3.432.573 6.911.821 10.39.74 6.05 0 9.32-5.09 11.95-9.18.34-.54.68-1.07 1.03-1.58a3.989 3.989 0 00.39-4.27c-1.27-2.37-5.3-3.55-9.86-4.08 15.5-4.57 28.51-12.48 26.75-28.23a14.799 14.799 0 00-.82-3.51c1.12.44 2.22.82 3.28 1.13a15.013 15.013 0 0012.65-1.87c5.91-3.77 9.88-11.25 10.48-15.2a3.565 3.565 0 00-1.059-3.4zm-74.93-30.35c4.21 7.61 9.38 15.51 11.36 18.52 1.87 2.85 4.86 8.76 4.89 8.82.09.181.208.346.35.49a106.778 106.778 0 0013.58 10.92c-10.92-1.05-24.48.85-36.12 2.98a63.854 63.854 0 011.66-12.72c.64-2.8 1.39-5.36 2.09-7.81 1.85-6.42 3.48-12.05 2.6-18.78-.101-.79-.241-1.6-.411-2.42h.001zm-17.09 43.9A95.119 95.119 0 01128 193.24h-.01c-1.54 0-5.85-.87-10.85-1.88a577.109 577.109 0 00-7.14-1.41 66.717 66.717 0 00-1.27-12.05h38.54a66.537 66.537 0 00-1.27 12.05c-2.53.48-4.92.96-7.14 1.41h.001zM99.64 149.88c-.88 6.73.75 12.36 2.6 18.78.7 2.45 1.45 5.01 2.09 7.81a63.928 63.928 0 011.66 12.72c-11.64-2.13-25.2-4.03-36.12-2.98a106.813 106.813 0 0013.58-10.92c.141-.144.26-.309.35-.49.03-.06 3.02-5.97 4.89-8.82 1.98-3.01 7.15-10.91 11.36-18.52-.17.82-.31 1.63-.41 2.42zm62.94-83.58l-.45 2.23a2.444 2.444 0 01-2.34 1.97c.01-.12.01-.24.01-.36v-6.79h.37a2.477 2.477 0 012.41 2.95zM93.3 68.53l-.44-2.23a2.462 2.462 0 012.41-2.95h.36v6.79c0 .12 0 .24.01.36a2.45 2.45 0 01-2.34-1.97zm6.34 1.95c-.01-.11-.01-.23-.01-.34V58.61a9.097 9.097 0 016.24-8.72 21.82 21.82 0 0012.48-9.73c3.7 5.79 13.33 16.23 35.13 17.49a2.458 2.458 0 012.32 2.46v10.03c0 .11 0 .23-.01.34a32.475 32.475 0 01-11.85 23.91 20.99 20.99 0 01-13.02 4.82h-6.4a18.21 18.21 0 01-2.97-.24c-12.44-1.98-21.75-16.1-21.91-28.49zM123 104.8v-1.64c.5.03 1.01.05 1.52.05h6.4c.7 0 1.4-.03 2.08-.09v1.68c0 5.17 2.23 8.21 5 10.06v6.97a10.001 10.001 0 01-20 0v-6.97c2.77-1.85 5-4.89 5-10.06zm-76.94 89.64a10.959 10.959 0 01-9.37-1.41 22.208 22.208 0 01-8.63-12.19c1.987.256 3.948.688 5.86 1.29a42.052 42.052 0 006.86 1.54c4.18.4 4.89 2.6 4.9 2.63a1.986 1.986 0 001.049 1.339 1.991 1.991 0 001.7.041c.47-.2 11.66-5.16 16.1-12.28 3.94-6.31 11.33-12.47 11.41-12.53.124-.11.238-.231.34-.36 4.65-6.38 8.93-14.79 12.7-22.2 3.07-6.02 5.97-11.72 8.46-15.09a18.78 18.78 0 019.001-6.7c.13 4.16.11 12.99-1.92 20.73a2.893 2.893 0 00-1.43-.96 2.99 2.99 0 00-3.59 1.57c-4.21 8.74-11.7 20.17-14.16 23.93-1.77 2.7-4.33 7.69-4.97 8.93-3.99 4.04-13.76 11.49-23.11 16.7a56.8 56.8 0 01-11.2 5.02zm66.55 41.53a38.22 38.22 0 01-17.39 6.63c-2.26.29-4.01.51-5.41.69-3.27.552-6.585.79-9.9.71-3.87 0-6.27-3.74-8.59-7.35-.36-.56-.71-1.11-1.06-1.63a1.15 1.15 0 01-.14-.24c.65-.77 4.82-2.29 14.04-2.29 1.21 0 2.33.04 3.42.08 1.611.1 3.228.1 4.84 0 6.45 1.16 13.44 2.11 20.83 2.94l-.64.46zm73.27-1.19c-.03.05-.07.13-.14.24-.35.53-.71 1.08-1.07 1.64-2.32 3.61-4.71 7.34-8.58 7.34a51.571 51.571 0 01-9.88-.71c-1.41-.18-3.16-.4-5.43-.68a38.002 38.002 0 01-17.46-6.69l-2.15-1.56a2.074 2.074 0 00-1.01-.37c-2.43-.2-4.85-.4-7.24-.6a33.152 33.152 0 001.94-9.07c.67.43 1.35.87 2.04 1.32.147.1.309.178.48.23l2.74.88a1.99 1.99 0 001.72-.24c2.8-1.86 9.09-4.05 12.85.95a11.504 11.504 0 008.31 5.04c.128.028.259.042.39.04 1.674.125 3.354.135 5.03.03 1.06-.04 2.2-.08 3.43-.08 9.21 0 13.38 1.52 14.03 2.29zm33.43-41.75a10.964 10.964 0 01-9.37 1.41 56.795 56.795 0 01-11.2-5.02c-9.35-5.21-19.12-12.66-23.11-16.7-.64-1.24-3.2-6.23-4.97-8.93-2.46-3.76-9.95-15.19-14.16-23.93a2.991 2.991 0 00-3.59-1.57 2.889 2.889 0 00-1.43.96c-2.03-7.74-2.05-16.57-1.92-20.73a18.784 18.784 0 019 6.7c2.49 3.37 5.39 9.07 8.46 15.09 3.77 7.41 8.05 15.82 12.7 22.2.102.129.216.25.34.36.08.06 7.47 6.22 11.41 12.53 4.44 7.12 15.63 12.08 16.1 12.28a1.961 1.961 0 002.36-.544c.183-.227.312-.492.38-.776.02-.09.73-2.29 4.91-2.69a42.073 42.073 0 006.86-1.54 31.195 31.195 0 015.84-1.29h.02a22.209 22.209 0 01-8.629 12.19h-.001z" fill="#0E384A"/><path d="M135.281 71.58a18.201 18.201 0 006.62 1.36c2.125.09 4.225-.483 6.01-1.64a2.002 2.002 0 00.36-2.76 2.024 2.024 0 00-2.78-.43c-.12.09-2.94 2.01-8.77-.26a1.999 1.999 0 00-1.44 3.73zm-13.42-2.59a1.999 1.999 0 00-1.814-1.274 1.993 1.993 0 00-.766.134c-5.77 2.24-8.59.39-8.76.27a2.001 2.001 0 10-2.43 3.18 10.258 10.258 0 006.01 1.64 18.205 18.205 0 006.62-1.36 2.003 2.003 0 001.276-1.821 2.02 2.02 0 00-.136-.769z" fill="#0E384A"/></svg>