<svg width="356" height="356" fill="none" xmlns="http://www.w3.org/2000/svg"><g clip-path="url(#clip0)" fill="#0E384A"><path d="M138.027 296.547c1.036-2.684 1.894-6.324 1.894-11.063 0-19.885-4.738-37.518-6.775-44.176a52.122 52.122 0 01-.311-1.111l-.172-.635c-.22-.787-1.625-5.148-2.814-8.779v-.002c-1.51-4.33-3.07-8.809-4.142-13.65l-.041-.182c-1.505-6.539-6.444-30.416-6.791-63.154l-.001-.053v-.054c0-4.109 1.534-7.485 3.279-10.077.817-12.611 2.729-25.902 5.721-39.822-22.609-27.264-42.699-45.102-42.699-45.102S71.373 152.035 96.84 222.005c12.763 35.063 27.113 59.723 41.187 74.542zM177.808 0s-34.344 63.494-42.955 129.234c.818-.896 1.669-1.832 2.553-2.811 3.234-3.578 6.659-6.686 9.971-9.691l.071-.064c3.579-3.242 7.28-6.596 10.097-10.096 3.537-4.403 7.023-12.635 6.49-18.233-.404-4.143.805-8.001 3.403-10.862a12.678 12.678 0 019.368-4.146h2.004c3.561 0 6.973 1.509 9.363 4.14 2.596 2.854 3.808 6.707 3.412 10.848-.537 5.621 2.949 13.85 6.487 18.252 2.812 3.496 6.515 6.854 10.114 10.114 3.33 3.021 6.773 6.144 10.025 9.742.883.977 1.731 1.911 2.551 2.808C212.151 63.494 177.808 0 177.808 0z"/><path d="M126.454 303.732l.287-.041c.761-.105 1.52-.215 2.279-.328a117.658 117.658 0 01-4.553-5.197c-14.085-17.072-26.933-41.402-38.186-72.318-7.537-20.709-12.443-44.857-14.678-72.102-25.458-31.82-42.843-57.293-42.843-57.293s-5.956 110.414 30.902 175.113c10.526 18.475 20.991 33.531 31.075 45.336 5.5-5.65 14.751-10.672 30.269-12.363 2.259-.348 4.007-.598 5.448-.807z"/><path d="M233.314 314.457a523.127 523.127 0 00-5.82-.861c-4.638-.656-5.883-.83-11.305-2.522-2.135-.666-10.492-9.094-10.492-25.59 0-21.252 5.047-40.021 7.213-47.102.059-.186.199-.723.396-1.445.359-1.328 2.989-9.357 2.989-9.357 1.426-4.086 2.901-8.311 3.86-12.652l.051-.223c1.449-6.283 6.201-29.258 6.537-61.033 0-3.206-2.666-5.996-4.256-7.662-.293-.306-.551-.574-.744-.799-1.532-1.783-3.551-3.983-5.887-6.529-1.54-1.68-3.237-3.529-5.064-5.553-2.922-3.232-6.182-6.189-9.336-9.05-3.877-3.513-7.883-7.147-11.176-11.244-4.922-6.122-9.473-16.833-8.648-25.468.125-1.3-.181-2.428-.855-3.17a2.656 2.656 0 00-1.965-.866c-.336 0-.676.063-1.001.191a2.75 2.75 0 00-1.003-.19c-.733 0-1.449.3-1.964.865-.674.742-.982 1.87-.855 3.17.822 8.635-3.729 19.346-8.648 25.468-3.295 4.097-7.3 7.731-11.178 11.244-3.152 2.86-6.415 5.817-9.337 9.05-1.826 2.023-3.523 3.873-5.063 5.553-2.336 2.547-4.353 4.746-5.887 6.529-.193.225-.449.493-.742.799-1.59 1.666-4.258 4.456-4.258 7.679.338 31.759 5.09 54.733 6.537 61.017l.051.223c.96 4.342 2.436 8.566 3.86 12.652 0 0 2.63 8.029 2.989 9.357.197.723.338 1.26.396 1.445 2.166 7.08 7.213 25.85 7.213 47.102 0 16.496-8.357 24.924-10.492 25.59-5.42 1.691-6.665 1.865-11.306 2.522-1.509.217-3.361.482-5.818.861-26.622 2.83-29.497 16.047-29.497 21.602 0 1.486.77 6.322 4.285 10.777 3.156 4.008 9.447 8.781 21.484 8.781 1.807 0 3.717-.105 5.68-.318 8.012-.863 16.086-2.154 23.895-3.402 2.836-.457 5.666-.91 8.502-1.346 3.777-.58 10.588-.963 20.237-1.139.451-.006.765-.016.918-.022.153.006.467.016.917.022 9.65.176 16.459.559 20.236 1.139 2.836.435 5.668.889 8.502 1.346 7.809 1.248 15.885 2.539 23.895 3.402 1.963.213 3.873.318 5.68.318 12.04 0 18.33-4.773 21.486-8.781 3.516-4.453 4.283-9.291 4.283-10.777.001-5.556-2.872-18.773-29.495-21.603zM191.89 206.256a2.65 2.65 0 01-1.154-.268c-1.238-.494-2.827-2.861-2.975-3.777 6.168-4.293 10.336-12.445 10.336-21.805 0-13.816-1.458-25.018-20.287-25.018s-20.287 11.201-20.287 25.018c0 9.359 4.168 17.512 10.336 21.803-.146.916-1.771 3.17-2.975 3.779-.379.18-.756.268-1.154.268-3.963 0-8.934-8.684-10.237-12.137-2.225-5.871-4.997-15.963-5.595-30.688l-.023-.564c-.15-3.104 4.521-11.035 5.139-12.393.853-1.868 11.889-18.693 15.166-22.678 1.16-1.41 7.041-9.215 9.632-12.661 2.591 3.446 8.47 11.251 9.628 12.661 3.281 3.984 14.314 20.81 15.168 22.678.618 1.357 5.289 9.289 5.141 12.393l-.025.564c-.596 14.725-3.371 24.816-5.596 30.688-1.305 3.453-6.273 12.137-10.238 12.137z"/><path d="M326.855 96.453s-17.385 25.473-42.844 57.293c-2.234 27.244-7.141 51.393-14.678 72.102-11.253 30.918-24.101 55.248-38.186 72.32a118.137 118.137 0 01-4.551 5.195c.66.1 1.408.205 2.316.334l.244.035c1.442.207 3.191.459 5.449.807 15.519 1.689 24.77 6.711 30.27 12.363 10.084-11.805 20.55-26.861 31.075-45.336 36.861-64.699 30.905-175.113 30.905-175.113zm-149.046 35.255a109.46 109.46 0 01-1.907 2.44c-1.544 1.877-5.373 7.502-8.648 12.469 3.154-.818 6.676-1.229 10.556-1.229 3.88 0 7.401.41 10.556 1.229-3.276-4.969-7.107-10.594-8.65-12.469-.175-.21-.526-.637-1.907-2.44z"/><path d="M236.741 153.672v.107c-.348 32.786-5.287 56.644-6.783 63.13l-.04.178c-1.077 4.877-2.635 9.352-4.152 13.701-1.189 3.627-2.592 7.984-2.814 8.779l-.16.594c-.102.384-.209.767-.322 1.148-2.037 6.658-6.775 24.289-6.775 44.176 0 4.738.857 8.381 1.894 11.064 14.074-14.818 28.425-39.478 41.188-74.543 25.467-69.971 11.665-163.318 11.665-163.318s-20.09 17.838-42.699 45.102c2.992 13.918 4.902 27.207 5.721 39.818 1.742 2.587 3.277 5.96 3.277 10.064z"/></g><defs><clipPath id="clip0"><path fill="#fff" d="M0 0h355.617v355.617H0z"/></clipPath></defs></svg>