<svg xmlns="http://www.w3.org/2000/svg" width="1440" height="560" preserveAspectRatio="none"><g mask="url(&quot;#SvgjsMask1109&quot;)" fill="none"><path fill="rgba(243, 244, 246, 1)" d="M0 0h1440v560H0z"/><path d="M0 335.21c70.436 12.624 153.981 36.129 210.168-8.183 56.757-44.762 23.841-140.945 59.004-204.1C309.257 50.934 415.35 20.353 426.385-61.305c11.028-81.606-41.474-164.1-102.698-219.171-58.594-52.705-141.55-71.371-220.361-71.42-67.678-.042-119.564 57.062-185.755 71.169-74.431 15.864-158.752-24.64-223.112 15.974-68.43 43.183-130.425 122.357-123.899 203.009 6.67 82.431 103.092 122.854 155.446 186.873 37.024 45.273 60.829 98.758 107.241 134.344C-117.304 297.387-61.334 324.217 0 335.21" fill="#dde0e5"/><path d="M1440 1187.544c114.698-13.145 198.005-106.86 288.784-178.188 82.289-64.657 163.987-128.055 216.315-218.685 56.129-97.213 100.981-204.678 92.767-316.631-8.496-115.805-56.238-230.184-138.87-311.762-79.96-78.94-193.632-112.111-305.067-126.513-100.386-12.974-192.622 39.954-293.423 49.163-133.274 12.176-291.147-73.111-393.12 13.559-98.813 83.984-79.983 246.834-64.777 375.621 13.022 110.29 99.606 191.157 143.732 293.071 45.344 104.727 35.244 236.067 118.954 313.633 87.672 81.238 215.958 120.341 334.705 106.732" fill="#fff"/></g><defs><mask id="SvgjsMask1109"><path fill="#fff" d="M0 0h1440v560H0z"/></mask></defs></svg>