<svg xmlns="http://www.w3.org/2000/svg" version="1.1" xmlns:xlink="http://www.w3.org/1999/xlink" xmlns:svgjs="http://svgjs.com/svgjs" width="1440" height="560" preserveAspectRatio="none" viewBox="0 0 1440 560"><g mask="url(&quot;#SvgjsMask1045&quot;)" fill="none"><rect width="1440" height="560" x="0" y="0" fill="rgba(243, 244, 246, 1)"></rect><path d="M -353.8465411996171,179 C -209.85,211.8 78.15,360.6 366.1534588003829,343 C 654.15,325.4 798.15,68 1086.1534588003829,91 C 1374.15,114 1735.38,442 1806.1534588003829,458 C 1876.92,474 1513.23,228.4 1440,171" stroke="rgba(14, 56, 74, 0.25)" stroke-width="2"></path><path d="M -1115.5821526708582,324 C -971.58,277.8 -683.58,62 -395.5821526708582,93 C -107.58,124 36.42,451.6 324.4178473291418,479 C 612.42,506.4 821.3,267.6 1044.4178473291418,230 C 1267.53,192.4 1360.88,278.8 1440,291" stroke="rgba(14, 56, 74, 0.25)" stroke-width="2"></path></g><defs><mask id="SvgjsMask1045"><rect width="1440" height="560" fill="#ffffff"></rect></mask></defs></svg>