<svg width="411" height="288" fill="none" xmlns="http://www.w3.org/2000/svg"><path d="M405.712 187.06a287.867 287.867 0 00-63.91-5.665c12.33-31.204 14.871-68.826 7.439-112.148a6.84 6.84 0 00-5.602-5.583 6.85 6.85 0 00-2.789.103 241.933 241.933 0 00-65.409 29.457A213.995 213.995 0 00210.23 1.429a6.851 6.851 0 00-9.069.616c-30.38 30.902-50.69 62.654-60.636 94.535a242.721 242.721 0 00-70.382-32.827 6.85 6.85 0 00-8.391 5.48c-7.432 43.322-4.864 80.938 7.439 112.148a287.98 287.98 0 00-63.91 5.665 6.808 6.808 0 00-4.507 3.508 6.845 6.845 0 00-.287 5.699c29.77 74.546 87.794 91.72 134.942 91.72a225.728 225.728 0 0070.068-11.619A225.657 225.657 0 00275.571 288c47.141 0 105.173-17.181 134.942-91.719a6.841 6.841 0 00-.287-5.7 6.812 6.812 0 00-4.514-3.521zm-79.096-4.926a180.397 180.397 0 00-71.883 19.867 6.72 6.72 0 00-3.164 1.781 118.09 118.09 0 00-35.544 31.573 163.57 163.57 0 00-3.487-37.677c8.22-34.779 29.352-64.393 63.019-88.082a238.162 238.162 0 0161.423-30.395c5.85 40.294 2.315 74.847-10.364 102.933zM206.517 16.137c12.063 10.68 44.12 42.246 57.162 85.266a165.677 165.677 0 00-58.182 73.196 163.27 163.27 0 00-53.251-69.463c8.281-29.723 26.44-59.618 54.271-89zM74.041 79.16a235.902 235.902 0 0166.252 33.909 146.778 146.778 0 0158.169 84.568 163.184 163.184 0 00-3.494 37.677C167.219 198.048 123.113 185.21 84.37 182.1c-12.672-28.052-16.207-62.612-10.33-102.92v-.02zm51.956 195.153c-51.285-2.781-88.09-28.169-109.523-75.464 31.05-5.288 143.032-17.865 179.96 66.093a207.232 207.232 0 01-70.437 9.392v-.021zm158.999 0a207.589 207.589 0 01-70.437-9.392c36.921-83.931 148.896-71.353 179.994-66.072-21.467 47.295-58.272 72.683-109.557 75.485v-.021z" fill="#000" fill-opacity=".09"/></svg>